<svg width="2580" height="1244" xmlns="http://www.w3.org/2000/svg" xmlns:xlink="http://www.w3.org/1999/xlink" overflow="hidden"><defs><clipPath id="clip0"><rect x="411" y="491" width="2580" height="1244"/></clipPath></defs><g clip-path="url(#clip0)" transform="translate(-411 -491)"><path d="M923 881 1113 881 1113 856 1163 906 1113 956 1113 931 923 931Z" fill="#BBD6EE" fill-rule="evenodd"/><path d="M2327 1254.21 2451.5 1254.21 2451.5 1228 2498 1274.5 2451.5 1321 2451.5 1294.79 2327 1294.79Z" fill="#BBD6EE" fill-rule="evenodd"/><path d="M2329 967.496 2453 967.496 2453 941 2500 988 2453 1035 2453 1008.5 2329 1008.5Z" fill="#BBD6EE" fill-rule="evenodd"/><path d="M0 172 95.7381 172 95.7381 35.9999 83.4767 35.9999 113.738 0 144 35.9999 131.738 35.9999 131.738 208 0 208Z" fill="#BBD6EE" fill-rule="evenodd" transform="matrix(1 -1.22465e-16 -1.22465e-16 -1 1347 780)"/><path d="M413.5 838.501C413.5 807.02 439.02 781.5 470.501 781.5L883.499 781.5C914.98 781.5 940.5 807.02 940.5 838.501L940.5 1066.5C940.5 1097.98 914.98 1123.5 883.499 1123.5L470.501 1123.5C439.02 1123.5 413.5 1097.98 413.5 1066.5Z" stroke="#31538F" stroke-width="4.58333" stroke-miterlimit="8" fill="#C3D69B" fill-rule="evenodd"/><text font-family="Calibri,Calibri_MSFontService,sans-serif" font-weight="400" font-size="83" transform="matrix(1 0 0 1 542.757 930)">Medical <tspan font-size="83" x="-20.35" y="100">Exposure</tspan></text><path d="M1169.5 822.334C1169.5 799.782 1187.78 781.5 1210.33 781.5L1618.67 781.5C1641.22 781.5 1659.5 799.782 1659.5 822.334L1659.5 985.666C1659.5 1008.22 1641.22 1026.5 1618.67 1026.5L1210.33 1026.5C1187.78 1026.5 1169.5 1008.22 1169.5 985.666Z" stroke="#31538F" stroke-width="4.58333" stroke-miterlimit="8" fill="#FF9900" fill-rule="evenodd"/><text font-family="Calibri,Calibri_MSFontService,sans-serif" font-weight="400" font-size="83" transform="matrix(1 0 0 1 1312.42 932)">NUPO</text><path d="M1839.5 899.001C1839.5 875.529 1858.53 856.5 1882 856.5L2287 856.5C2310.47 856.5 2329.5 875.529 2329.5 899.001L2329.5 1069C2329.5 1092.47 2310.47 1111.5 2287 1111.5L1882 1111.5C1858.53 1111.5 1839.5 1092.47 1839.5 1069Z" stroke="#31538F" stroke-width="4.58333" stroke-miterlimit="8" fill="#FF8F8F" fill-rule="evenodd"/><text font-family="Calibri,Calibri_MSFontService,sans-serif" font-weight="400" font-size="83" transform="matrix(1 0 0 1 1959.5 961)">Risk for <tspan font-size="83" x="45.5354" y="100">OUD</tspan></text><path d="M2498.5 897.667C2498.5 874.931 2516.93 856.5 2539.67 856.5L2947.33 856.5C2970.07 856.5 2988.5 874.931 2988.5 897.667L2988.5 1062.33C2988.5 1085.07 2970.07 1103.5 2947.33 1103.5L2539.67 1103.5C2516.93 1103.5 2498.5 1085.07 2498.5 1062.33Z" stroke="#31538F" stroke-width="4.58333" stroke-miterlimit="8" fill="#FF0000" fill-rule="evenodd"/><text font-family="Calibri,Calibri_MSFontService,sans-serif" font-weight="400" font-size="83" transform="matrix(1 0 0 1 2663.71 1008)">OUD</text><path d="M1129.5 1540.83C1129.5 1519.66 1146.66 1502.5 1167.83 1502.5L2253.17 1502.5C2274.34 1502.5 2291.5 1519.66 2291.5 1540.83L2291.5 1694.17C2291.5 1715.34 2274.34 1732.5 2253.17 1732.5L1167.83 1732.5C1146.66 1732.5 1129.5 1715.34 1129.5 1694.17Z" stroke="#31538F" stroke-width="4.58333" stroke-miterlimit="8" fill="#E7E6E6" fill-rule="evenodd"/><text font-family="Calibri,Calibri_MSFontService,sans-serif" font-weight="400" font-size="83" transform="matrix(1 0 0 1 1373.87 1645)">Predictive Modeling</text><path d="M1671 887.241 1794 887.241 1794 869 1833 908 1794 947 1794 928.759 1671 928.759Z" fill="#BBD6EE" fill-rule="evenodd"/><path d="M940 1044.5 1800 1044.5 1800 1025 1839 1064 1800 1103 1800 1083.5 940 1083.5Z" fill="#BBD6EE" fill-rule="evenodd"/><path d="M0 112.5 173.728 112.5 173.728 37.5 160.955 37.5 192.478 0 224 37.5 211.228 37.5 211.228 150 0 150Z" fill="#BBD6EE" fill-rule="evenodd" transform="matrix(-6.12323e-17 -1 -1 6.12323e-17 809 781)"/><path d="M809.5 524.001C809.5 507.156 823.156 493.5 840.001 493.5L1317 493.5C1333.84 493.5 1347.5 507.156 1347.5 524.001L1347.5 645.999C1347.5 662.844 1333.84 676.5 1317 676.5L840.001 676.5C823.156 676.5 809.5 662.844 809.5 645.999Z" stroke="#31538F" stroke-width="4.58333" stroke-miterlimit="8" fill="#FFAE59" fill-rule="evenodd" fill-opacity="0.498039"/><text font-family="Calibri,Calibri_MSFontService,sans-serif" font-weight="400" font-size="83" transform="matrix(1 0 0 1 842.518 613)">Risk for NUPO</text><path d="M1835.5 1206.83C1835.5 1185.66 1852.66 1168.5 1873.83 1168.5L2287.17 1168.5C2308.34 1168.5 2325.5 1185.66 2325.5 1206.83L2325.5 1360.17C2325.5 1381.34 2308.34 1398.5 2287.17 1398.5L1873.83 1398.5C1852.66 1398.5 1835.5 1381.34 1835.5 1360.17Z" stroke="#31538F" stroke-width="4.58333" stroke-miterlimit="8" fill="#FF8F8F" fill-rule="evenodd"/><text font-family="Calibri,Calibri_MSFontService,sans-serif" font-weight="400" font-size="83" transform="matrix(1 0 0 1 1955.62 1261)">Risk for <tspan font-size="83" x="-36.3916" y="100">Overdose</tspan></text><path d="M2498.5 1212.83C2498.5 1191.66 2515.66 1174.5 2536.83 1174.5L2950.17 1174.5C2971.34 1174.5 2988.5 1191.66 2988.5 1212.83L2988.5 1366.17C2988.5 1387.34 2971.34 1404.5 2950.17 1404.5L2536.83 1404.5C2515.66 1404.5 2498.5 1387.34 2498.5 1366.17Z" stroke="#31538F" stroke-width="4.58333" stroke-miterlimit="8" fill="#FF0000" fill-rule="evenodd"/><text font-family="Calibri,Calibri_MSFontService,sans-serif" font-weight="400" font-size="83" transform="matrix(1 0 0 1 2718.43 1317)">OD</text><path d="M0-18.3333 274.928-18.3333 274.928 366.161 238.261 366.161 238.261 0 256.594 18.3333 0 18.3333ZM293.261 347.828 256.594 421.161 219.928 347.828Z" fill="#BDD7EE" transform="matrix(1.83697e-16 1 1 -1.83697e-16 1414.5 1026.5)"/><path d="M0-18.3333 512.359-18.3333 512.359 397.776 475.692 397.776 475.692 0 494.026 18.3333 0 18.3333ZM530.692 379.442 494.026 452.776 457.359 379.442Z" fill="#FFAE59" transform="matrix(1.83697e-16 1 1 -1.83697e-16 677.5 1123.5)"/><path d="M0-18.3333 470.026-18.3333 470.026 166.083 433.36 166.083 433.36 0 451.693 18.3333 0 18.3333ZM488.36 147.749 451.693 221.083 415.026 147.749Z" fill="#FFAE59" transform="matrix(1 -1.22465e-16 -1.22465e-16 -1 2291.5 1625.58)"/><path d="M2323.83 1656.11 2323.83 1675.62 2305.5 1657.29 2663.87 1657.29 2645.53 1675.62 2645.53 1129.5 2682.2 1129.5 2682.2 1693.95 2287.17 1693.95 2287.17 1656.11ZM2627.2 1147.83 2663.87 1074.5 2700.53 1147.83Z" fill="#FFAE59"/><path d="M2091.95 1111 2091.95 1140 2121 1140 2070.5 1169 2020 1140 2049.05 1140 2049.05 1111Z" fill="#BBD6EE" fill-rule="evenodd"/></g></svg>