<svg id="SvgjsSvg1208" width="974" height="432.6875" xmlns="http://www.w3.org/2000/svg" version="1.1" xmlns:xlink="http://www.w3.org/1999/xlink" xmlns:svgjs="http://svgjs.com/svgjs"><defs id="SvgjsDefs1209"><marker id="SvgjsMarker1230" markerWidth="14" markerHeight="10" refX="10" refY="5" viewBox="0 0 14 10" orient="auto" markerUnits="userSpaceOnUse" stroke-dasharray="0,0"><path id="SvgjsPath1231" d="M0,0 L14,5 L0,10 L0,0" fill="#323232" stroke="#323232" stroke-width="1"></path></marker><marker id="SvgjsMarker1234" markerWidth="14" markerHeight="10" refX="10" refY="5" viewBox="0 0 14 10" orient="auto" markerUnits="userSpaceOnUse" stroke-dasharray="0,0"><path id="SvgjsPath1235" d="M0,0 L14,5 L0,10 L0,0" fill="#323232" stroke="#323232" stroke-width="1"></path></marker><marker id="SvgjsMarker1238" markerWidth="14" markerHeight="10" refX="10" refY="5" viewBox="0 0 14 10" orient="auto" markerUnits="userSpaceOnUse" stroke-dasharray="0,0"><path id="SvgjsPath1239" d="M0,0 L14,5 L0,10 L0,0" fill="#323232" stroke="#323232" stroke-width="1"></path></marker><marker id="SvgjsMarker1284" markerWidth="14" markerHeight="10" refX="10" refY="5" viewBox="0 0 14 10" orient="auto" markerUnits="userSpaceOnUse" stroke-dasharray="0,0"><path id="SvgjsPath1285" d="M0,0 L14,5 L0,10 L0,0" fill="#323232" stroke="#323232" stroke-width="1"></path></marker><marker id="SvgjsMarker1288" markerWidth="14" markerHeight="10" refX="10" refY="5" viewBox="0 0 14 10" orient="auto" markerUnits="userSpaceOnUse" stroke-dasharray="0,0"><path id="SvgjsPath1289" d="M0,0 L14,5 L0,10 L0,0" fill="#323232" stroke="#323232" stroke-width="1"></path></marker><marker id="SvgjsMarker1292" markerWidth="14" markerHeight="10" refX="10" refY="5" viewBox="0 0 14 10" orient="auto" markerUnits="userSpaceOnUse" stroke-dasharray="0,0"><path id="SvgjsPath1293" d="M0,0 L14,5 L0,10 L0,0" fill="#323232" stroke="#323232" stroke-width="1"></path></marker><marker id="SvgjsMarker1296" markerWidth="14" markerHeight="10" refX="10" refY="5" viewBox="0 0 14 10" orient="auto" markerUnits="userSpaceOnUse" stroke-dasharray="0,0"><path id="SvgjsPath1297" d="M0,0 L14,5 L0,10 L0,0" fill="#323232" stroke="#323232" stroke-width="1"></path></marker><marker id="SvgjsMarker1300" markerWidth="14" markerHeight="10" refX="10" refY="5" viewBox="0 0 14 10" orient="auto" markerUnits="userSpaceOnUse" stroke-dasharray="0,0"><path id="SvgjsPath1301" d="M0,0 L14,5 L0,10 L0,0" fill="#323232" stroke="#323232" stroke-width="1"></path></marker><marker id="SvgjsMarker1330" markerWidth="14" markerHeight="10" refX="10" refY="5" viewBox="0 0 14 10" orient="auto" markerUnits="userSpaceOnUse" stroke-dasharray="0,0"><path id="SvgjsPath1331" d="M0,0 L14,5 L0,10 L0,0" fill="#323232" stroke="#323232" stroke-width="1"></path></marker><marker id="SvgjsMarker1334" markerWidth="14" markerHeight="10" refX="10" refY="5" viewBox="0 0 14 10" orient="auto" markerUnits="userSpaceOnUse" stroke-dasharray="0,0"><path id="SvgjsPath1335" d="M0,0 L14,5 L0,10 L0,0" fill="#323232" stroke="#323232" stroke-width="1"></path></marker></defs><g id="SvgjsG1210" transform="translate(25,225)"><path id="SvgjsPath1211" d="M 0 0L 109 0L 109 59L 0 59Z" stroke="rgba(255,255,255,1)" stroke-width="2" fill-opacity="1" fill="#0000ff"></path><g id="SvgjsG1212"><text id="SvgjsText1213" font-family="微软雅黑" text-anchor="middle" font-size="18px" width="89px" fill="#ffffff" font-weight="700" align="middle" lineHeight="125%" anchor="middle" family="微软雅黑" size="18px" weight="700" font-style="" opacity="1" y="2.75" transform="rotate(0)"><tspan id="SvgjsTspan1214" dy="22" x="54.5"><tspan id="SvgjsTspan1215" style="text-decoration:;">EHR </tspan></tspan><tspan id="SvgjsTspan1216" dy="22" x="54.5"><tspan id="SvgjsTspan1217" style="text-decoration:;">Database</tspan></tspan></text></g></g><g id="SvgjsG1218" transform="translate(235,174)"><path id="SvgjsPath1219" d="M 0 29C 0 -9.666666666666666 86 -9.666666666666666 86 29C 86 67.66666666666667 0 67.66666666666667 0 29Z" stroke="rgba(50,50,50,1)" stroke-width="2" fill-opacity="1" fill="#7b1fa2"></path><g id="SvgjsG1220"><text id="SvgjsText1221" font-family="微软雅黑" text-anchor="middle" font-size="18px" width="66px" fill="#ffffff" font-weight="700" align="middle" lineHeight="125%" anchor="middle" family="微软雅黑" size="18px" weight="700" font-style="" opacity="1" y="13.25" transform="rotate(0)"><tspan id="SvgjsTspan1222" dy="22" x="43"><tspan id="SvgjsTspan1223" style="text-decoration:;">GNN</tspan></tspan></text></g></g><g id="SvgjsG1224" transform="translate(397,167)"><path id="SvgjsPath1225" d="M 0 4Q 0 0 4 0L 33 0Q 37 0 37 4L 37 68Q 37 72 33 72L 4 72Q 0 72 0 68Z" stroke="rgba(50,50,50,1)" stroke-width="2" fill-opacity="1" fill="#4caf50"></path><g id="SvgjsG1226"><text id="SvgjsText1227" font-family="微软雅黑" text-anchor="middle" font-size="13px" width="17px" fill="#323232" font-weight="400" align="middle" lineHeight="125%" anchor="middle" family="微软雅黑" size="13px" weight="400" font-style="" opacity="1" y="25.375" transform="rotate(0)"></text></g></g><g id="SvgjsG1228"><path id="SvgjsPath1229" d="M135 254.5L184.5 254.5L184.5 290L393.4 290" stroke="#323232" stroke-width="2" fill="none" marker-end="url(#SvgjsMarker1230)"></path></g><g id="SvgjsG1232"><path id="SvgjsPath1233" d="M135 254.5L184.5 254.5L184.5 203L231.39999999999998 203" stroke="#323232" stroke-width="2" fill="none" marker-end="url(#SvgjsMarker1234)"></path></g><g id="SvgjsG1236"><path id="SvgjsPath1237" d="M322 203L359 203L359 203L393.4 203" stroke="#323232" stroke-width="2" fill="none" marker-end="url(#SvgjsMarker1238)"></path></g><g id="SvgjsG1240" transform="translate(459,167)"><path id="SvgjsPath1241" d="M 0 4Q 0 0 4 0L 33 0Q 37 0 37 4L 37 68Q 37 72 33 72L 4 72Q 0 72 0 68Z" stroke="rgba(50,50,50,1)" stroke-width="2" fill-opacity="1" fill="#4caf50"></path><g id="SvgjsG1242"><text id="SvgjsText1243" font-family="微软雅黑" text-anchor="middle" font-size="13px" width="17px" fill="#323232" font-weight="400" align="middle" lineHeight="125%" anchor="middle" family="微软雅黑" size="13px" weight="400" font-style="" opacity="1" y="25.375" transform="rotate(0)"></text></g></g><g id="SvgjsG1244" transform="translate(459,252.25)"><path id="SvgjsPath1245" d="M 0 4Q 0 0 4 0L 33 0Q 37 0 37 4L 37 71.5Q 37 75.5 33 75.5L 4 75.5Q 0 75.5 0 71.5Z" stroke="rgba(50,50,50,1)" stroke-width="2" fill-opacity="1" fill="#ff9800"></path><g id="SvgjsG1246"><text id="SvgjsText1247" font-family="微软雅黑" text-anchor="middle" font-size="13px" width="17px" fill="#323232" font-weight="400" align="middle" lineHeight="125%" anchor="middle" family="微软雅黑" size="13px" weight="400" font-style="" opacity="1" y="27.125" transform="rotate(0)"></text></g></g><g id="SvgjsG1248" transform="translate(521,165.75)"><path id="SvgjsPath1249" d="M 0 4Q 0 0 4 0L 31 0Q 35 0 35 4L 35 70.5Q 35 74.5 31 74.5L 4 74.5Q 0 74.5 0 70.5Z" stroke="rgba(50,50,50,1)" stroke-width="2" fill-opacity="1" fill="#4caf50"></path><g id="SvgjsG1250"><text id="SvgjsText1251" font-family="微软雅黑" text-anchor="middle" font-size="13px" width="15px" fill="#323232" font-weight="400" align="middle" lineHeight="125%" anchor="middle" family="微软雅黑" size="13px" weight="400" font-style="" opacity="1" y="26.625" transform="rotate(0)"></text></g></g><g id="SvgjsG1252" transform="translate(397,254)"><path id="SvgjsPath1253" d="M 0 4Q 0 0 4 0L 33 0Q 37 0 37 4L 37 68Q 37 72 33 72L 4 72Q 0 72 0 68Z" stroke="rgba(50,50,50,1)" stroke-width="2" fill-opacity="1" fill="#ff9800"></path><g id="SvgjsG1254"><text id="SvgjsText1255" font-family="微软雅黑" text-anchor="middle" font-size="13px" width="17px" fill="#323232" font-weight="400" align="middle" lineHeight="125%" anchor="middle" family="微软雅黑" size="13px" weight="400" font-style="" opacity="1" y="25.375" transform="rotate(0)"></text></g></g><g id="SvgjsG1256" transform="translate(520,254)"><path id="SvgjsPath1257" d="M 0 4Q 0 0 4 0L 33 0Q 37 0 37 4L 37 68Q 37 72 33 72L 4 72Q 0 72 0 68Z" stroke="rgba(50,50,50,1)" stroke-width="2" fill-opacity="1" fill="#ff9800"></path><g id="SvgjsG1258"><text id="SvgjsText1259" font-family="微软雅黑" text-anchor="middle" font-size="13px" width="17px" fill="#323232" font-weight="400" align="middle" lineHeight="125%" anchor="middle" family="微软雅黑" size="13px" weight="400" font-style="" opacity="1" y="25.375" transform="rotate(0)"></text></g></g><g id="SvgjsG1260" transform="translate(581,167)"><path id="SvgjsPath1261" d="M 0 4Q 0 0 4 0L 31 0Q 35 0 35 4L 35 70.5Q 35 74.5 31 74.5L 4 74.5Q 0 74.5 0 70.5Z" stroke="rgba(50,50,50,1)" stroke-width="2" fill-opacity="1" fill="#4caf50"></path><g id="SvgjsG1262"><text id="SvgjsText1263" font-family="微软雅黑" text-anchor="middle" font-size="13px" width="15px" fill="#323232" font-weight="400" align="middle" lineHeight="125%" anchor="middle" family="微软雅黑" size="13px" weight="400" font-style="" opacity="1" y="26.625" transform="rotate(0)"></text></g></g><g id="SvgjsG1264" transform="translate(581,252.75)"><path id="SvgjsPath1265" d="M 0 4Q 0 0 4 0L 31 0Q 35 0 35 4L 35 70.5Q 35 74.5 31 74.5L 4 74.5Q 0 74.5 0 70.5Z" stroke="rgba(50,50,50,1)" stroke-width="2" fill-opacity="1" fill="#ff9800"></path><g id="SvgjsG1266"><text id="SvgjsText1267" font-family="微软雅黑" text-anchor="middle" font-size="13px" width="15px" fill="#323232" font-weight="400" align="middle" lineHeight="125%" anchor="middle" family="微软雅黑" size="13px" weight="400" font-style="" opacity="1" y="26.625" transform="rotate(0)"></text></g></g><g id="SvgjsG1268" transform="translate(641,167)"><path id="SvgjsPath1269" d="M 0 4Q 0 0 4 0L 31 0Q 35 0 35 4L 35 70.5Q 35 74.5 31 74.5L 4 74.5Q 0 74.5 0 70.5Z" stroke="rgba(50,50,50,1)" stroke-width="2" fill-opacity="1" fill="#4caf50"></path><g id="SvgjsG1270"><text id="SvgjsText1271" font-family="微软雅黑" text-anchor="middle" font-size="13px" width="15px" fill="#323232" font-weight="400" align="middle" lineHeight="125%" anchor="middle" family="微软雅黑" size="13px" weight="400" font-style="" opacity="1" y="26.625" transform="rotate(0)"></text></g></g><g id="SvgjsG1272" transform="translate(641,251.5)"><path id="SvgjsPath1273" d="M 0 4Q 0 0 4 0L 31 0Q 35 0 35 4L 35 70.5Q 35 74.5 31 74.5L 4 74.5Q 0 74.5 0 70.5Z" stroke="rgba(50,50,50,1)" stroke-width="2" fill-opacity="1" fill="#ff9800"></path><g id="SvgjsG1274"><text id="SvgjsText1275" font-family="微软雅黑" text-anchor="middle" font-size="13px" width="15px" fill="#323232" font-weight="400" align="middle" lineHeight="125%" anchor="middle" family="微软雅黑" size="13px" weight="400" font-style="" opacity="1" y="26.625" transform="rotate(0)"></text></g></g><g id="SvgjsG1276" transform="translate(397,94)"><path id="SvgjsPath1277" d="M 0 0L 279 0L 279 36L 0 36Z" stroke="rgba(50,50,50,1)" stroke-width="2" fill-opacity="1" fill="#7b1fa2"></path><g id="SvgjsG1278"><text id="SvgjsText1279" font-family="微软雅黑" text-anchor="middle" font-size="18px" width="259px" fill="#ffffff" font-weight="700" align="middle" lineHeight="125%" anchor="middle" family="微软雅黑" size="18px" weight="700" font-style="" opacity="1" y="2.25" transform="rotate(0)"><tspan id="SvgjsTspan1280" dy="22" x="139.5"><tspan id="SvgjsTspan1281" style="text-decoration:;">LSTM</tspan></tspan></text></g></g><g id="SvgjsG1282"><path id="SvgjsPath1283" d="M415.5 166L415.5 148.5L415.5 148.5L415.5 133.6" stroke="#323232" stroke-width="2" fill="none" marker-end="url(#SvgjsMarker1284)"></path></g><g id="SvgjsG1286"><path id="SvgjsPath1287" d="M538.5 164.75L538.5 147.875L538.5 147.875L538.5 133.6" stroke="#323232" stroke-width="2" fill="none" marker-end="url(#SvgjsMarker1288)"></path></g><g id="SvgjsG1290"><path id="SvgjsPath1291" d="M598.5 166L598.5 148.5L598.5 148.5L598.5 133.6" stroke="#323232" stroke-width="2" fill="none" marker-end="url(#SvgjsMarker1292)"></path></g><g id="SvgjsG1294"><path id="SvgjsPath1295" d="M658.5 166L658.5 148.5L658.5 148.5L658.5 133.6" stroke="#323232" stroke-width="2" fill="none" marker-end="url(#SvgjsMarker1296)"></path></g><g id="SvgjsG1298"><path id="SvgjsPath1299" d="M477.5 166L477.5 148.5L477.5 148.5L477.5 133.6" stroke="#323232" stroke-width="2" fill="none" marker-end="url(#SvgjsMarker1300)"></path></g><g id="SvgjsG1302" transform="translate(277,127)"><path id="SvgjsPath1303" d="M 0 0L 120 0L 120 40L 0 40Z" stroke="none" fill="none"></path><g id="SvgjsG1304"><text id="SvgjsText1305" font-family="微软雅黑" text-anchor="middle" font-size="18px" width="120px" fill="#323232" font-weight="700" align="middle" lineHeight="125%" anchor="middle" family="微软雅黑" size="18px" weight="700" font-style="" opacity="1" y="-6.75" transform="rotate(0)"><tspan id="SvgjsTspan1306" dy="22" x="60"><tspan id="SvgjsTspan1307" style="text-decoration:;">Graph </tspan></tspan><tspan id="SvgjsTspan1308" dy="22" x="60"><tspan id="SvgjsTspan1309" style="text-decoration:;">Embeddings</tspan></tspan></text></g></g><g id="SvgjsG1310" transform="translate(190.5,297)"><path id="SvgjsPath1311" d="M 0 0L 175 0L 175 38L 0 38Z" stroke="none" fill="none"></path><g id="SvgjsG1312"><text id="SvgjsText1313" font-family="微软雅黑" text-anchor="middle" font-size="18px" width="175px" fill="#323232" font-weight="700" align="middle" lineHeight="125%" anchor="middle" family="微软雅黑" size="18px" weight="700" font-style="" opacity="1" y="3.25" transform="rotate(0)"><tspan id="SvgjsTspan1314" dy="22" x="87.5"><tspan id="SvgjsTspan1315" style="text-decoration:;">Raw Feature Matrix</tspan></tspan></text></g></g><g id="SvgjsG1316" transform="translate(413.5,350)"><path id="SvgjsPath1317" d="M 0 0L 250 0L 250 27L 0 27Z" stroke="none" fill="none"></path><g id="SvgjsG1318"><text id="SvgjsText1319" font-family="微软雅黑" text-anchor="middle" font-size="18px" width="250px" fill="#323232" font-weight="700" align="middle" lineHeight="125%" anchor="middle" family="微软雅黑" size="18px" weight="700" font-style="" opacity="1" y="-2.25" transform="rotate(0)"><tspan id="SvgjsTspan1320" dy="22" x="125"><tspan id="SvgjsTspan1321" style="text-decoration:;">Concatenate by Encounter</tspan></tspan></text></g></g><g id="SvgjsG1322" transform="translate(449,25)"><path id="SvgjsPath1323" d="M 0 0L 175 0L 175 38L 0 38Z" stroke="none" fill="none"></path><g id="SvgjsG1324"><text id="SvgjsText1325" font-family="微软雅黑" text-anchor="middle" font-size="18px" width="175px" fill="#323232" font-weight="700" align="middle" lineHeight="125%" anchor="middle" family="微软雅黑" size="18px" weight="700" font-style="" opacity="1" y="3.25" transform="rotate(0)"><tspan id="SvgjsTspan1326" dy="22" x="87.5"><tspan id="SvgjsTspan1327" style="text-decoration:;">Prediction</tspan></tspan></text></g></g><g id="SvgjsG1328"><path id="SvgjsPath1329" d="M536.5 93L536.5 78.5L536.5 78.5L536.5 66.6" stroke="#323232" stroke-width="2" fill="none" marker-end="url(#SvgjsMarker1330)"></path></g><g id="SvgjsG1332"><path id="SvgjsPath1333" d="M677 288.75L704.5 288.75L704.5 288.75L729.4 288.75" stroke="#323232" stroke-width="2" fill="none" marker-end="url(#SvgjsMarker1334)"></path></g><g id="SvgjsG1336" transform="translate(733,169.6875)"><path id="SvgjsPath1337" d="M 0 4Q 0 0 4 0L 212 0Q 216 0 216 4L 216 234.125Q 216 238.125 212 238.125L 4 238.125Q 0 238.125 0 234.125Z" stroke="rgba(50,50,50,1)" stroke-width="2" fill-opacity="1" fill="#ffffff"></path><g id="SvgjsG1338"><text id="SvgjsText1339" font-family="微软雅黑" text-anchor="middle" font-size="13px" width="196px" fill="#323232" font-weight="400" align="middle" lineHeight="125%" anchor="middle" family="微软雅黑" size="13px" weight="400" font-style="" opacity="1" y="108.4375" transform="rotate(0)"></text></g></g><g id="SvgjsG1340" transform="translate(769.0000000000002,179.4642857142857)"><path id="SvgjsPath1341" d="M 0 0L 136.9999999999999 0L 136.9999999999999 33.714285714285694L 0 33.714285714285694Z" stroke="none" fill="none"></path><g id="SvgjsG1342"><text id="SvgjsText1343" font-family="微软雅黑" text-anchor="middle" font-size="15px" width="137px" fill="#323232" font-weight="700" align="middle" lineHeight="125%" anchor="middle" family="微软雅黑" size="15px" weight="700" font-style="" opacity="1" y="-5.017857142857153" transform="rotate(0)"><tspan id="SvgjsTspan1344" dy="18" x="68.5"><tspan id="SvgjsTspan1345" style="text-decoration:;">Raw Feature </tspan></tspan><tspan id="SvgjsTspan1346" dy="18" x="68.5"><tspan id="SvgjsTspan1347" style="text-decoration:;">Matrix Sample</tspan></tspan></text></g></g><g id="SvgjsG1348" transform="translate(804.0000000000001,287.17857142857133)"><path id="SvgjsPath1349" d="M 0 0L 123 0L 123 41L 0 41Z" stroke="none" fill="none"></path><g id="SvgjsG1350"><text id="SvgjsText1351" font-family="微软雅黑" text-anchor="start" font-size="13px" width="123px" fill="#323232" font-weight="400" align="middle" lineHeight="125%" anchor="start" family="微软雅黑" size="13px" weight="400" font-style="" opacity="1" y="-71.625" transform="rotate(0)"><tspan id="SvgjsTspan1352" dy="16" x="0"><tspan id="SvgjsTspan1353" style="text-decoration:;">Binary value to </tspan></tspan><tspan id="SvgjsTspan1354" dy="16" x="0"><tspan id="SvgjsTspan1355" style="text-decoration:;">record existence of </tspan></tspan><tspan id="SvgjsTspan1356" dy="16" x="0"><tspan id="SvgjsTspan1357" style="text-decoration:;">clinical feature like </tspan></tspan><tspan id="SvgjsTspan1358" dy="16" x="0"><tspan id="SvgjsTspan1359" style="text-decoration:;">ICD code.</tspan></tspan><tspan id="SvgjsTspan1360" dy="16" x="0"><tspan id="SvgjsTspan1361" style="text-decoration:;">Numeric value to </tspan></tspan><tspan id="SvgjsTspan1362" dy="16" x="0"><tspan id="SvgjsTspan1363" style="text-decoration:;">record feature like </tspan></tspan><tspan id="SvgjsTspan1364" dy="16" x="0"><tspan id="SvgjsTspan1365" style="text-decoration:;">weight.</tspan></tspan><tspan id="SvgjsTspan1366" dy="16" x="0"><tspan id="SvgjsTspan1367" style="text-decoration:;">One-hot encoding </tspan></tspan><tspan id="SvgjsTspan1368" dy="16" x="0"><tspan id="SvgjsTspan1369" style="text-decoration:;">to record </tspan></tspan><tspan id="SvgjsTspan1370" dy="16" x="0"><tspan id="SvgjsTspan1371" style="text-decoration:;">categorical feature </tspan></tspan><tspan id="SvgjsTspan1372" dy="16" x="0"><tspan id="SvgjsTspan1373" style="text-decoration:;">like race. </tspan></tspan></text></g></g><g id="SvgjsG1374" transform="translate(755.0000000000001,226.24999999999994)"><path id="SvgjsPath1375" d="M 0 0L 36 0L 36 24L 0 24Z" stroke="rgba(50,50,50,1)" stroke-width="2" fill-opacity="1" fill="#ffffff"></path><g id="SvgjsG1376"><text id="SvgjsText1377" font-family="微软雅黑" text-anchor="middle" font-size="13px" width="16px" fill="#323232" font-weight="400" align="middle" lineHeight="125%" anchor="middle" family="微软雅黑" size="13px" weight="400" font-style="" opacity="1" y="1.375" transform="rotate(0)"><tspan id="SvgjsTspan1378" dy="16" x="18"><tspan id="SvgjsTspan1379" style="text-decoration:;">1</tspan></tspan></text></g></g><g id="SvgjsG1380" transform="translate(755.0000000000001,251.24999999999994)"><path id="SvgjsPath1381" d="M 0 0L 36 0L 36 24L 0 24Z" stroke="rgba(50,50,50,1)" stroke-width="2" fill-opacity="1" fill="#ffffff"></path><g id="SvgjsG1382"><text id="SvgjsText1383" font-family="微软雅黑" text-anchor="middle" font-size="13px" width="16px" fill="#323232" font-weight="400" align="middle" lineHeight="125%" anchor="middle" family="微软雅黑" size="13px" weight="400" font-style="" opacity="1" y="1.375" transform="rotate(0)"><tspan id="SvgjsTspan1384" dy="16" x="18"><tspan id="SvgjsTspan1385" style="text-decoration:;">...</tspan></tspan></text></g></g><g id="SvgjsG1386" transform="translate(755.0000000000001,275.49999999999994)"><path id="SvgjsPath1387" d="M 0 0L 36 0L 36 24L 0 24Z" stroke="rgba(50,50,50,1)" stroke-width="2" fill-opacity="1" fill="#ffffff"></path><g id="SvgjsG1388"><text id="SvgjsText1389" font-family="微软雅黑" text-anchor="middle" font-size="13px" width="16px" fill="#323232" font-weight="400" align="middle" lineHeight="125%" anchor="middle" family="微软雅黑" size="13px" weight="400" font-style="" opacity="1" y="1.375" transform="rotate(0)"><tspan id="SvgjsTspan1390" dy="16" x="18"><tspan id="SvgjsTspan1391" style="text-decoration:;">56</tspan></tspan></text></g></g><g id="SvgjsG1392" transform="translate(755.0000000000001,299.49999999999994)"><path id="SvgjsPath1393" d="M 0 0L 36 0L 36 24L 0 24Z" stroke="rgba(50,50,50,1)" stroke-width="2" fill-opacity="1" fill="#ffffff"></path><g id="SvgjsG1394"><text id="SvgjsText1395" font-family="微软雅黑" text-anchor="middle" font-size="13px" width="16px" fill="#323232" font-weight="400" align="middle" lineHeight="125%" anchor="middle" family="微软雅黑" size="13px" weight="400" font-style="" opacity="1" y="1.375" transform="rotate(0)"><tspan id="SvgjsTspan1396" dy="16" x="18"><tspan id="SvgjsTspan1397" style="text-decoration:;">...</tspan></tspan></text></g></g><g id="SvgjsG1398" transform="translate(755.0000000000001,322.4285714285714)"><path id="SvgjsPath1399" d="M 0 0L 36 0L 36 24L 0 24Z" stroke="rgba(50,50,50,1)" stroke-width="2" fill-opacity="1" fill="#ffffff"></path><g id="SvgjsG1400"><text id="SvgjsText1401" font-family="微软雅黑" text-anchor="middle" font-size="13px" width="16px" fill="#323232" font-weight="400" align="middle" lineHeight="125%" anchor="middle" family="微软雅黑" size="13px" weight="400" font-style="" opacity="1" y="1.375" transform="rotate(0)"><tspan id="SvgjsTspan1402" dy="16" x="18"><tspan id="SvgjsTspan1403" style="text-decoration:;">16</tspan></tspan></text></g></g><g id="SvgjsG1404" transform="translate(755,344.99999999999994)"><path id="SvgjsPath1405" d="M 0 0L 36 0L 36 24L 0 24Z" stroke="rgba(50,50,50,1)" stroke-width="2" fill-opacity="1" fill="#ffffff"></path><g id="SvgjsG1406"><text id="SvgjsText1407" font-family="微软雅黑" text-anchor="middle" font-size="13px" width="16px" fill="#323232" font-weight="400" align="middle" lineHeight="125%" anchor="middle" family="微软雅黑" size="13px" weight="400" font-style="" opacity="1" y="1.375" transform="rotate(0)"><tspan id="SvgjsTspan1408" dy="16" x="18"><tspan id="SvgjsTspan1409" style="text-decoration:;">...</tspan></tspan></text></g></g></svg>